<svg id="Layer_1" data-name="Layer 1" xmlns="http://www.w3.org/2000/svg" xmlns:xlink="http://www.w3.org/1999/xlink" viewBox="0 0 3836.09 5404.8"><defs><style>.cls-1{fill:#697072;}.cls-2{fill:#fdd49f;}.cls-3{fill:#271716;}.cls-4{fill:#fff;}.cls-5{fill:url(#radial-gradient);}.cls-6{fill:#ffaa87;}.cls-7{fill:#fcb18c;}.cls-8{fill:#6f2916;}.cls-9{fill:#ba0000;}.cls-10{fill:url(#linear-gradient);}.cls-11{fill:#301e1b;}.cls-12,.cls-14{fill:#ccc;}.cls-12{opacity:0.45;}.cls-13{fill:#666;opacity:0.75;}.cls-14{opacity:0.54;}</style><radialGradient id="radial-gradient" cx="1148.51" cy="4614.54" r="160.33" gradientUnits="userSpaceOnUse"><stop offset="0.46" stop-color="#ffaa87"/><stop offset="0.57" stop-color="#feb78e"/><stop offset="0.8" stop-color="#fdcc9b"/><stop offset="0.94" stop-color="#fdd49f"/></radialGradient><linearGradient id="linear-gradient" x1="1378.86" y1="4738.96" x2="1678.09" y2="4738.96" gradientTransform="translate(3839.81 207.8) rotate(45)" gradientUnits="userSpaceOnUse"><stop offset="0" stop-color="#fcb18c"/><stop offset="0.46" stop-color="#fcb18c"/><stop offset="0.52" stop-color="#fcb78f"/><stop offset="0.77" stop-color="#fdcc9b"/><stop offset="0.94" stop-color="#fdd49f"/><stop offset="1" stop-color="#fdd49f"/></linearGradient></defs><title>foggy</title><rect class="cls-1" x="591.21" width="3244.88" height="5404.8"/><path class="cls-2" d="M549.08,4552.17a89.89,89.89,0,0,0-11.65,126.58L830.61,5031.4V4750.21l-155-186.38A89.89,89.89,0,0,0,549.08,4552.17Z" transform="translate(591.21)"/><path class="cls-3" d="M1329.65,4574.64l-126.53-19.83a90.21,90.21,0,0,0-86.07,35.18L919,4856.52,819.6,4737,691.08,4863.57l162.77,195.78a89.89,89.89,0,0,0,141.25-3.85l233.84-314.69,72.87,11.42h0a89.88,89.88,0,0,0,27.84-177.6Z" transform="translate(591.21)"/><polygon class="cls-4" points="1227.65 4797.84 1282.29 4863.56 1410.81 4736.96 1358.38 4673.9 1227.65 4797.84"/><circle class="cls-2" cx="1156.03" cy="4571.96" r="165.32"/><path class="cls-2" d="M610.11,4290.53a43.8,43.8,0,0,0-57.82-21.69h0a43.78,43.78,0,0,0-21.68,57.81l89.12,196.11a43.78,43.78,0,0,0,57.81,21.68h0a43.78,43.78,0,0,0,21.68-57.81Z" transform="translate(591.21)"/><circle class="cls-5" cx="1156.03" cy="4571.96" r="165.32"/><path class="cls-2" d="M612.26,4489.5l-79.38,60.86a43.66,43.66,0,0,0,53.14,69.3l47.88-36.73c-33.61,54.57-3.95,103.24,51.15,88.21s80.16-107.71,30.13-170.05S612.26,4489.5,612.26,4489.5Z" transform="translate(591.21)"/><rect class="cls-6" x="2001.19" y="4357.22" width="218.19" height="337.21"/><path class="cls-2" d="M1516.47,4553.1c-345.14,0-345.14,0-345.14,572.26,0,121.3-4.76,278.2-4.76,278.2h699.8s-4.75-156.9-4.75-278.2C1861.62,4553.1,1866.37,4553.1,1516.47,4553.1Z" transform="translate(591.21)"/><path class="cls-3" d="M1973.34,4627.91a105.46,105.46,0,0,0-105.7-78.77l-193.41,6.92h0a105.32,105.32,0,1,0,7.53,210.5l109-3.89,15.53,59.78a105.32,105.32,0,0,0-113.88,169.72l238.94,264a105.32,105.32,0,0,0,180-97.16Z" transform="translate(591.21)"/><path class="cls-3" d="M1867.41,5396.55c-.91-31.69-4.55-165.08-4.55-271.19v-44.2c0-108.67-.19-195-3.46-263.57-2.46-51.44-6.64-92.92-13.81-126.4-5.37-25.1-12.41-45.72-21.68-62.65-13.89-25.4-32.82-42.48-58.35-53.83s-57.59-17.05-98-19.92h0l-304.88.34h0c-47.94,3.75-84,11.81-111.23,29.3-20.4,13.12-35.72,31.55-47.15,57.22-17.14,38.52-25.65,93.32-29.91,171.56s-4.26,179.93-4.26,312.16c0,60.63-1.19,130.18-2.38,184.56-.59,27.19-1.19,50.59-1.63,67.2-.23,8.3-.41,14.9-.54,19.43s-.21,7-.21,7l0,1.28h702.36l0-1.28S1867.54,5401.07,1867.41,5396.55Z" transform="translate(591.21)"/><circle class="cls-2" cx="1023.98" cy="4036.23" r="167.01" transform="translate(-1962.92 1906.24) rotate(-45)"/><path class="cls-7" d="M1024,3951.73a84.5,84.5,0,1,0,84.5,84.5A84.51,84.51,0,0,0,1024,3951.73Z" transform="translate(591.21)"/><circle class="cls-2" cx="2019.75" cy="4036.23" r="167.01" transform="translate(-1671.27 2610.36) rotate(-45)"/><path class="cls-7" d="M2019.75,3951.73a84.5,84.5,0,1,0,84.5,84.5A84.51,84.51,0,0,0,2019.75,3951.73Z" transform="translate(591.21)"/><path class="cls-8" d="M1519.34,3087.73c-315.34,0-571,114.23-571,641.34,0,399.46,255.64,585,571,585s571-185.54,571-585C2090.32,3202,1834.68,3087.73,1519.34,3087.73Z" transform="translate(591.21)"/><path class="cls-8" d="M1378.59,2942.33c-210.28,79.19-267.3,235.62-267.3,235.62l-52.49-60.58C977,3296.42,1003.52,3387,1003.52,3387l550.41-253.56,60.79-170.06c-121,1.76-215.72,73.15-215.72,73.15Z" transform="translate(591.21)"/><path class="cls-2" d="M1519.34,3399.55c-280.88,0-508.58,8.85-508.58,492.69,0,366.68,227.7,598.87,508.58,598.87s508.58-232.19,508.58-598.87C2027.92,3408.4,1800.22,3399.55,1519.34,3399.55Z" transform="translate(591.21)"/><path class="cls-8" d="M1170.14,3455.49s118.06-80.63,341.6,37.05c0,0,119.26-125.26,324.16-48S1489.47,3145.56,1170.14,3455.49Z" transform="translate(591.21)"/><path class="cls-8" d="M1144.25,3637.83l-3.24,58.73s88.62-65.45,194.89,9.13l27.42-38.25S1290.75,3539.37,1144.25,3637.83Z" transform="translate(591.21)"/><path class="cls-8" d="M1657.92,3622.14l-2.41,58.77s87.7-66.68,195,6.43l26.88-38.63S1803.05,3521.66,1657.92,3622.14Z" transform="translate(591.21)"/><ellipse class="cls-3" cx="1859.78" cy="3939.17" rx="58.47" ry="91.27"/><path class="cls-3" d="M1765.61,3847.9c-32.3,0-58.48,40.86-58.48,91.27s26.18,91.28,58.48,91.28,58.47-40.87,58.47-91.28S1797.9,3847.9,1765.61,3847.9Z" transform="translate(591.21)"/><polygon class="cls-4" points="2106.6 4982.59 2258.72 4556.02 1967.72 4556.02 2106.6 4982.59"/><polygon class="cls-9" points="2107.68 4561.78 2020.37 4672.96 2070.13 4725.5 2055.36 4825.2 2106.6 4982.59 2162.22 4826.63 2147.61 4725.5 2198.86 4677.5 2107.68 4561.78"/><path class="cls-2" d="M1698.9,4778.45a92.57,92.57,0,0,0-17.77,129.7l96.06,126.56,145.47-114.55-94.07-123.94A92.57,92.57,0,0,0,1698.9,4778.45Z" transform="translate(591.21)"/><circle class="cls-10" cx="1669.07" cy="4738.96" r="168.53" transform="translate(-2270.88 2568.22) rotate(-45)"/><polygon class="cls-4" points="2318.69 4969.22 2368.4 5034.71 2513.87 4920.16 2454.27 4841.63 2318.69 4969.22"/><path class="cls-4" d="M1537.39,5088.67a22,22,0,1,0,22,22A22,22,0,0,0,1537.39,5088.67Z" transform="translate(591.21)"/><path class="cls-4" d="M1537.39,5224.54a22,22,0,1,0,22,22A22,22,0,0,0,1537.39,5224.54Z" transform="translate(591.21)"/><path class="cls-3" d="M1374.53,4147.39Z" transform="translate(591.21)"/><path class="cls-3" d="M1672.14,4106.58c-34.42,24.55-68.05,40.16-99.64,49.67a302.11,302.11,0,0,1-87.33,12.92,298.32,298.32,0,0,1-80.61-11,236.5,236.5,0,0,1-22.46-7.52c-2.57-1-4.51-1.85-5.78-2.42-.64-.28-1.11-.5-1.41-.64l-.31-.15-.06,0h0l-1.7,3.43,1.68-3.44a9.92,9.92,0,0,0-8.76,17.8h0c.44.21,12.53,6.14,33.39,12a318.23,318.23,0,0,0,86,11.78,322.06,322.06,0,0,0,93-13.76c33.61-10.12,69.29-26.73,105.44-52.52a9.92,9.92,0,0,0-11.52-16.15Z" transform="translate(591.21)"/><path class="cls-3" d="M1374.55,4147.4h0l-1.68,3.44Z" transform="translate(591.21)"/><path class="cls-11" d="M1937.58,3799.34c-15.55-4.27-34.36-6.89-57.88-8.58-25.84-1.83-57.37-2.47-96.24-2.43-50.53.05-88.63,1.21-118,4.66a266.7,266.7,0,0,0-29.63,5,135.73,135.73,0,0,0-21,6.58,83.65,83.65,0,0,0-15.15,8,66.29,66.29,0,0,0-5.7,4.29l-150.47.15c-.92-.77-1.85-1.52-2.81-2.25-7.81-5.85-17.13-10.23-28-13.61-16.4-5.07-36.56-8-62.41-9.89s-57.37-2.47-96.24-2.44c-50.53.06-88.63,1.21-118,4.66a269.67,269.67,0,0,0-29.64,5c-2.22.53-4.36,1.09-6.46,1.67-71.22,3-103.81,17.31-103.81,17.31l.06,53,41.07,44,1.2-2.87c0,3.84,0,7.77,0,11.84,0,27.52,6.21,52.31,17.58,73.62a148.43,148.43,0,0,0,33.4,41.82c20.3,17.8,45.36,30.86,73.36,39.5s59,12.85,91.53,12.83c28.91,0,56.6-3.43,82.06-10.28a227,227,0,0,0,53-21.36,174.85,174.85,0,0,0,33-24,146.41,146.41,0,0,0,34.91-49.12c8.19-18.89,12.55-40.17,12.52-63.4,0-11.51,0-22.06-.34-31.86,5.81-14.82,19.09-33.31,49.29-34.45,30.19,1.09,43.51,19.54,49.35,34.36-.3,9.79-.29,20.34-.27,31.85,0,27.53,6.21,52.32,17.58,73.62a148.43,148.43,0,0,0,33.4,41.82c20.29,17.81,45.36,30.87,73.36,39.5s59,12.86,91.52,12.83c28.91,0,56.6-3.42,82.06-10.27a226.86,226.86,0,0,0,53-21.36,174.77,174.77,0,0,0,33-24,146.29,146.29,0,0,0,34.92-49.12c8.18-18.9,12.54-40.18,12.51-63.41q0-6.09,0-11.83l1.2,2.86,41-44.07,0-53S2008.8,3802.19,1937.58,3799.34Zm-510.79,183.71a119.33,119.33,0,0,1-26.87,33.72c-16.61,14.64-37.92,26-62.7,33.7s-53,11.68-82.93,11.71c-26.65,0-51.89-3.08-74.57-9.14a197.59,197.59,0,0,1-46.29-18.49,144.88,144.88,0,0,1-27.59-20,117.23,117.23,0,0,1-28.15-39.36c-6.55-15.08-10.2-32.22-10.23-51.84,0-12.69,0-23.94.35-33.75a178.94,178.94,0,0,1,2-22.38,66.13,66.13,0,0,1,3.75-14.08,38.22,38.22,0,0,1,2.86-5.65q2.74-3.48,5.45-6.69a34.6,34.6,0,0,1,3-2.52c4.43-3.34,10.58-6.46,19.21-9.15,12.9-4.05,31.21-7,55.85-8.77s55.63-2.51,94.15-2.55c50.07,0,87.42,1.08,114.64,4.24a238.76,238.76,0,0,1,26.4,4.37,109.46,109.46,0,0,1,16.55,5.11,56.5,56.5,0,0,1,10,5.23,36,36,0,0,1,6,5,34.4,34.4,0,0,1,7,11,62.55,62.55,0,0,1,3.36,11.83,168,168,0,0,1,2.44,24.9c.38,9.73.39,20.87.41,33.43C1440.85,3946.28,1435.79,3966.06,1426.79,3983.05Zm529.44-.51a119.65,119.65,0,0,1-26.87,33.72c-16.61,14.64-37.93,26-62.71,33.7s-52.94,11.67-82.93,11.7c-26.65,0-51.88-3.07-74.56-9.13a197.93,197.93,0,0,1-46.3-18.49,146,146,0,0,1-27.59-20,117.17,117.17,0,0,1-28.15-39.36c-6.54-15.07-10.2-32.22-10.22-51.83,0-12.7,0-24,.34-33.75a181,181,0,0,1,2-22.39,65.56,65.56,0,0,1,3.76-14.07,35.38,35.38,0,0,1,5-8.74,33.4,33.4,0,0,1,6.3-6.12c4.44-3.35,10.59-6.47,19.21-9.16,12.91-4.05,31.21-7,55.85-8.76s55.63-2.52,94.16-2.55c50.06-.06,87.42,1.07,114.64,4.24a236.82,236.82,0,0,1,26.4,4.37,107.42,107.42,0,0,1,16.54,5.11,55.66,55.66,0,0,1,10,5.23,37.62,37.62,0,0,1,4.6,3.63c1.84,2.19,3.71,4.47,5.58,6.84a39.55,39.55,0,0,1,2.82,5.6,62.3,62.3,0,0,1,3.37,11.83,169.05,169.05,0,0,1,2.44,24.89c.37,9.73.39,20.88.4,33.43C1970.29,3945.76,1965.22,3965.55,1956.23,3982.54Z" transform="translate(591.21)"/><path class="cls-12" d="M2868.66,4491.11c-177.69,0-334.62,66.16-428.76,167.18a492.6,492.6,0,0,0-127.44-16.5c-207.61,0-375.92,125.28-375.92,279.81,0,38.23,10.31,74.66,29,107.86h-77.62c-127.81,0-232.37,77.83-232.37,173h0c0,95.13,104.56,173,232.37,173h1357V4610.5C3150,4536.92,3016.51,4491.11,2868.66,4491.11Z" transform="translate(591.21)"/><path class="cls-13" d="M2963.49,5404.8c110.65-32.37,188.39-105.82,188.39-190.71h0c0-114.6-141.62-208.36-314.7-208.36h-38.24c12.82-17.58,20-37.29,20-58.12,0-73.9-90.48-133.81-202.1-133.81-33,0-64.22,5.25-91.76,14.56,0-1.2,0-2.39,0-3.6,0-258.21-316.16-467.54-706.17-467.54-240.64,0-453.17,79.69-580.66,201.39a745.1,745.1,0,0,0-172.59-19.87c-281.17,0-509.1,150.91-509.1,337.06,0,46.05,14,89.95,39.21,129.93H490.7c-173.09,0-314.7,93.76-314.7,208.36h0c0,84.89,77.73,158.34,188.39,190.71" transform="translate(591.21)"/><path class="cls-14" d="M1948.26,5404.8a271.75,271.75,0,0,0,49.18-156h0c0-150.56-123.19-273.74-273.75-273.74h-33.27a175.86,175.86,0,0,0-238.21-233c0-1.58,0-3.15,0-4.73,0-339.26-275-614.28-614.29-614.28-209.32,0-394.19,104.7-505.1,264.59a443.77,443.77,0,0,0-385.58,41.6l-77.63,61.94A443.31,443.31,0,0,0-226,4975h-91.44c-150.56,0-273.75,123.18-273.75,273.74h0a271.82,271.82,0,0,0,49.17,156" transform="translate(591.21)"/><path class="cls-14" d="M-52.73,4429.17a445,445,0,0,0-77.63,61.94Z" transform="translate(591.21)"/></svg>