<svg id="Layer_1" data-name="Layer 1" xmlns="http://www.w3.org/2000/svg" xmlns:xlink="http://www.w3.org/1999/xlink" viewBox="0 0 3358 5500"><defs><style>.cls-1{fill:#697072;}.cls-2{fill:#fdd49f;}.cls-3{fill:#271716;}.cls-4{fill:#fff;}.cls-5{fill:url(#radial-gradient);}.cls-6{fill:#ffaa87;}.cls-7{fill:#fcb18c;}.cls-8{fill:#6f2916;}.cls-9{fill:#ba0000;}.cls-10{fill:url(#linear-gradient);}.cls-11{fill:#301e1b;}.cls-12,.cls-14{fill:#ccc;}.cls-12{opacity:0.45;}.cls-13{fill:#666;opacity:0.75;}.cls-14{opacity:0.54;}</style><radialGradient id="radial-gradient" cx="6576.35" cy="4661.54" r="160.33" gradientTransform="matrix(-1, 0, 0, 1, 7202.68, 0)" gradientUnits="userSpaceOnUse"><stop offset="0.46" stop-color="#ffaa87"/><stop offset="0.57" stop-color="#feb78e"/><stop offset="0.8" stop-color="#fdcc9b"/><stop offset="0.94" stop-color="#fdd49f"/></radialGradient><linearGradient id="linear-gradient" x1="1041.45" y1="495.58" x2="1042.9" y2="495.58" gradientTransform="matrix(203.32, -33.04, 33.04, 203.32, -226680.74, -61517.74)" gradientUnits="userSpaceOnUse"><stop offset="0" stop-color="#fcb18c"/><stop offset="0.46" stop-color="#fcb18c"/><stop offset="0.52" stop-color="#fcb78f"/><stop offset="0.77" stop-color="#fdcc9b"/><stop offset="0.94" stop-color="#fdd49f"/><stop offset="1" stop-color="#fdd49f"/></linearGradient></defs><title>foggy</title><rect class="cls-1" x="54" y="47" width="3244.88" height="5404.8"/><path class="cls-2" d="M603.08,4599.17a89.89,89.89,0,0,1,126.58,11.66l155,186.38V5078.4L591.43,4725.75A89.89,89.89,0,0,1,603.08,4599.17Z"/><path class="cls-3" d="M873.6,4784,973,4903.52l198-266.53a90.21,90.21,0,0,1,86.07-35.18l126.53,19.83a89.88,89.88,0,0,1-27.84,177.6h0l-72.87-11.42L1049.1,5102.5a89.89,89.89,0,0,1-141.25,3.85L745.08,4910.57Z"/><polygon class="cls-4" points="690.44 4844.84 821.17 4720.9 873.6 4783.96 745.08 4910.56 690.44 4844.84"/><circle class="cls-2" cx="618.82" cy="4618.96" r="165.32"/><path class="cls-2" d="M731.54,4591.44h0a43.78,43.78,0,0,0,21.68-57.81l-89.11-196.1a43.8,43.8,0,0,0-57.82-21.69h0a43.78,43.78,0,0,0-21.68,57.81l89.12,196.11A43.78,43.78,0,0,0,731.54,4591.44Z"/><circle class="cls-5" cx="618.82" cy="4618.96" r="165.32"/><path class="cls-2" d="M687.9,4629.93,640,4666.66a43.8,43.8,0,0,1-61.22-8.08h0a43.8,43.8,0,0,1,8.08-61.22l79.38-60.87s52.9-50.75,102.92,11.6,25,155-30.13,170.05S654.29,4684.5,687.9,4629.93Z"/><rect class="cls-6" x="1463.99" y="4404.22" width="218.19" height="337.21"/><path class="cls-2" d="M1920.37,5450.56s-4.75-156.9-4.75-278.2c0-572.26,4.75-572.26-345.15-572.26-345.14,0-345.14,0-345.14,572.26,0,121.3-4.76,278.2-4.76,278.2Z"/><path class="cls-3" d="M1728.23,4603.06h0l193.41-6.92a105.46,105.46,0,0,1,105.7,78.77l138,531.13a105.32,105.32,0,0,1-180,97.16l-238.94-264a105.32,105.32,0,0,1,113.88-169.72l-15.53-59.78-109,3.89a105.32,105.32,0,1,1-7.53-210.5Z"/><path class="cls-3" d="M1921.61,5450.52s-.07-2.45-.2-7c-.91-31.69-4.55-165.08-4.55-271.19v-44.2c0-108.67-.19-195-3.46-263.57-2.46-51.44-6.64-92.92-13.8-126.4-5.38-25.1-12.42-45.72-21.69-62.65-13.89-25.4-32.82-42.48-58.35-53.83s-57.59-17.05-98-19.92h0l-304.88.33h0c-47.94,3.75-84,11.81-111.23,29.3-20.4,13.11-35.72,31.55-47.15,57.22-17.14,38.52-25.65,93.32-29.91,171.56s-4.26,179.93-4.26,312.16c0,60.63-1.19,130.18-2.38,184.56-.59,27.19-1.19,50.59-1.63,67.2-.23,8.3-.41,14.9-.54,19.43s-.21,7-.21,7l0,1.28h702.36Z"/><circle class="cls-2" cx="1077.98" cy="4083.23" r="167.01" transform="translate(-2571.55 1958.19) rotate(-45)"/><path class="cls-7" d="M1162.48,4083.23a84.51,84.51,0,1,1-84.5-84.5A84.5,84.5,0,0,1,1162.48,4083.23Z"/><circle class="cls-2" cx="2073.75" cy="4083.23" r="167.01" transform="translate(-2279.89 2662.31) rotate(-45)"/><circle class="cls-7" cx="2073.75" cy="4083.23" r="84.5" transform="translate(-2419.91 4966.54) rotate(-74.2)"/><path class="cls-8" d="M2144.32,3776.07c0,399.46-255.64,585-571,585s-571-185.54-571-585c0-527.11,255.64-641.34,571-641.34S2144.32,3249,2144.32,3776.07Z"/><path class="cls-8" d="M1057.52,3434s-26.53-90.58,55.28-269.63l52.49,60.58s57-156.43,267.3-235.62l20.41,94.2s94.69-71.39,215.72-73.15l-60.79,170.06Z"/><path class="cls-2" d="M2081.92,3939.24c0,366.68-227.7,598.87-508.58,598.87s-508.58-232.19-508.58-598.87c0-483.84,227.7-492.69,508.58-492.69S2081.92,3455.4,2081.92,3939.24Z"/><path class="cls-8" d="M1224.14,3502.49s118-80.63,341.6,37.05c0,0,119.26-125.26,324.16-48S1543.47,3192.56,1224.14,3502.49Z"/><path class="cls-8" d="M1198.25,3684.83l-3.24,58.73s88.62-65.45,194.89,9.13l27.42-38.25S1344.75,3586.37,1198.25,3684.83Z"/><path class="cls-8" d="M1711.92,3669.14l-2.41,58.77s87.7-66.68,195,6.43l26.88-38.63S1857.05,3568.66,1711.92,3669.14Z"/><ellipse class="cls-3" cx="1322.58" cy="3986.17" rx="58.47" ry="91.27"/><path class="cls-3" d="M1878.08,3986.17c0,50.41-26.18,91.28-58.47,91.28s-58.48-40.87-58.48-91.28,26.18-91.27,58.48-91.27S1878.08,3935.76,1878.08,3986.17Z"/><polygon class="cls-4" points="1430.51 4603.02 1569.39 5029.59 1721.52 4603.02 1430.51 4603.02"/><polygon class="cls-9" points="1661.65 4724.5 1570.47 4608.78 1483.16 4719.96 1532.92 4772.5 1518.15 4872.2 1569.39 5029.59 1625.01 4873.63 1610.4 4772.5 1661.65 4724.5"/><path class="cls-2" d="M1735.13,4955.15a92.56,92.56,0,1,1,147.46-111.93l94.07,123.94-145.47,114.55Z"/><circle class="cls-10" cx="1723.07" cy="4785.96" r="168.53" transform="translate(-2879.51 2620.17) rotate(-45)"/><polygon class="cls-4" points="1781.48 5016.22 1917.06 4888.63 1976.66 4967.16 1831.19 5081.71 1781.48 5016.22"/><circle class="cls-4" cx="1591.39" cy="5157.67" r="22" transform="translate(-212.97 70.59) rotate(-2.38)"/><path class="cls-4" d="M1613.39,5293.54a22,22,0,1,1-22-22A22,22,0,0,1,1613.39,5293.54Z"/><path class="cls-3" d="M1419.77,4212.19c.44.21,12.53,6.14,33.39,12a318.23,318.23,0,0,0,86,11.78,322.06,322.06,0,0,0,93-13.76c33.61-10.12,69.29-26.73,105.44-52.52a9.92,9.92,0,0,0-11.52-16.15c-34.41,24.55-68.05,40.16-99.64,49.67a302.11,302.11,0,0,1-87.33,12.92,298.32,298.32,0,0,1-80.61-11,236.5,236.5,0,0,1-22.46-7.52c-2.57-1-4.51-1.85-5.78-2.42-.64-.28-1.11-.5-1.41-.64l-.31-.15-.06,0h0l-1.68,3.44,1.7-3.43h0l-1.68,3.44,1.7-3.43a9.92,9.92,0,1,0-8.78,17.79Z"/><path class="cls-11" d="M1991.58,3846.34c-15.55-4.27-34.36-6.89-57.88-8.58-25.84-1.83-57.37-2.47-96.24-2.43-50.53.05-88.63,1.21-118,4.66a266.7,266.7,0,0,0-29.63,5,135.73,135.73,0,0,0-21,6.58,83.65,83.65,0,0,0-15.15,8,66.29,66.29,0,0,0-5.7,4.29l-150.47.15c-.92-.77-1.85-1.52-2.81-2.25-7.81-5.85-17.13-10.23-28-13.61-16.4-5.07-36.56-8-62.41-9.89s-57.37-2.47-96.24-2.44c-50.53.06-88.63,1.21-118,4.66a269.67,269.67,0,0,0-29.64,5c-2.22.53-4.36,1.09-6.46,1.67-71.22,3-103.81,17.31-103.81,17.31l.06,53,41.07,44,1.2-2.87c0,3.84,0,7.77,0,11.84,0,27.52,6.21,52.31,17.58,73.62a148.43,148.43,0,0,0,33.4,41.82c20.3,17.8,45.36,30.86,73.36,39.5s59,12.85,91.53,12.83c28.91,0,56.6-3.43,82.06-10.28a227,227,0,0,0,53-21.36,174.85,174.85,0,0,0,33-24,146.41,146.41,0,0,0,34.91-49.12c8.19-18.89,12.55-40.17,12.52-63.4,0-11.51,0-22.06-.34-31.86,5.81-14.82,19.09-33.3,49.29-34.45,30.19,1.09,43.51,19.54,49.35,34.36-.3,9.79-.29,20.34-.27,31.85,0,27.53,6.21,52.32,17.58,73.62a148.43,148.43,0,0,0,33.4,41.82c20.29,17.81,45.36,30.87,73.36,39.5s59,12.86,91.52,12.83c28.91,0,56.6-3.42,82.06-10.27a226.86,226.86,0,0,0,53-21.36,174.77,174.77,0,0,0,33-24,146.29,146.29,0,0,0,34.92-49.12c8.18-18.9,12.54-40.18,12.51-63.41q0-6.09,0-11.83l1.2,2.86,41-44.07-.05-53S2062.8,3849.19,1991.58,3846.34Zm-510.79,183.71a119.33,119.33,0,0,1-26.87,33.72c-16.61,14.64-37.92,26-62.7,33.7s-53,11.68-82.93,11.71c-26.65,0-51.89-3.07-74.57-9.14a197.59,197.59,0,0,1-46.29-18.49,144.88,144.88,0,0,1-27.59-20,117.23,117.23,0,0,1-28.15-39.36c-6.55-15.08-10.2-32.22-10.23-51.84,0-12.69,0-23.94.35-33.75a178.94,178.94,0,0,1,2-22.38,66.13,66.13,0,0,1,3.75-14.08,38.22,38.22,0,0,1,2.86-5.65q2.74-3.48,5.45-6.69a34.6,34.6,0,0,1,3-2.52c4.43-3.34,10.58-6.46,19.21-9.15,12.9-4.05,31.21-7,55.85-8.77s55.63-2.51,94.15-2.55c50.07,0,87.42,1.08,114.64,4.24a238.76,238.76,0,0,1,26.4,4.37,109.46,109.46,0,0,1,16.55,5.11,56.5,56.5,0,0,1,10,5.23,36,36,0,0,1,6,5,34.4,34.4,0,0,1,7,11,62.55,62.55,0,0,1,3.36,11.83,168,168,0,0,1,2.44,24.9c.38,9.73.39,20.87.41,33.43C1494.85,3993.28,1489.79,4013.06,1480.79,4030.05Zm537.28-130.69a62.3,62.3,0,0,1,3.37,11.83,169.05,169.05,0,0,1,2.44,24.89c.37,9.73.39,20.88.4,33.43,0,23.25-5.06,43-14,60a119.65,119.65,0,0,1-26.87,33.72c-16.61,14.64-37.93,26-62.71,33.7s-52.94,11.67-82.93,11.7c-26.65,0-51.88-3.07-74.56-9.13a197.93,197.93,0,0,1-46.3-18.49,146,146,0,0,1-27.59-20,117.17,117.17,0,0,1-28.15-39.36c-6.54-15.07-10.2-32.22-10.22-51.83,0-12.7,0-24,.34-33.75a181,181,0,0,1,2-22.39,65.56,65.56,0,0,1,3.76-14.07,35.38,35.38,0,0,1,5-8.74,33.4,33.4,0,0,1,6.3-6.12c4.44-3.35,10.59-6.47,19.21-9.16,12.91-4.05,31.21-7,55.85-8.76s55.63-2.52,94.16-2.55c50.06-.06,87.42,1.07,114.64,4.24a239.16,239.16,0,0,1,26.4,4.37,107.42,107.42,0,0,1,16.54,5.11,55.66,55.66,0,0,1,10,5.23,37.62,37.62,0,0,1,4.6,3.63c1.84,2.19,3.71,4.47,5.58,6.84A39.55,39.55,0,0,1,2018.07,3899.36Z"/><path class="cls-12" d="M3674.52,5076.46h-28.23c9.47-14.59,14.78-31,14.78-48.25,0-61.35-66.82-111.08-149.24-111.08a191.19,191.19,0,0,0-67.76,12.09c0-1,0-2,0-3,0-214.35-233.46-388.12-521.44-388.12-177.69,0-334.62,66.16-428.76,167.18a492.6,492.6,0,0,0-127.44-16.5c-207.61,0-375.92,125.28-375.92,279.81,0,38.23,10.31,74.66,29,107.86h-77.62c-127.81,0-232.37,77.83-232.37,173h0c0,95.13,104.56,173,232.37,173H3674.52c127.81,0,232.38-77.83,232.38-173h0C3906.9,5154.29,3802.33,5076.46,3674.52,5076.46Z"/><path class="cls-13" d="M2891.18,5052.73h-38.24c12.82-17.58,20-37.29,20-58.12,0-73.9-90.48-133.81-202.1-133.81-33,0-64.22,5.25-91.76,14.56,0-1.2,0-2.39,0-3.6,0-258.21-316.16-467.54-706.17-467.54-240.64,0-453.17,79.69-580.66,201.39a745.1,745.1,0,0,0-172.59-19.87c-281.17,0-509.1,150.91-509.1,337.06,0,46.05,14,89.95,39.21,129.93H544.7c-173.09,0-314.7,93.76-314.7,208.36h0c0,114.59,141.61,208.35,314.7,208.35H2891.18c173.08,0,314.7-93.76,314.7-208.35h0C3205.88,5146.49,3064.26,5052.73,2891.18,5052.73Z"/><path class="cls-14" d="M1777.69,5022h-33.27a175.86,175.86,0,0,0-238.21-233c0-1.58,0-3.15,0-4.73,0-339.26-275-614.28-614.29-614.28-209.32,0-394.19,104.7-505.1,264.59a441.83,441.83,0,0,0-150.13-26.11c-244.58,0-442.85,198.27-442.85,442.86A441.47,441.47,0,0,0-172,5022h-91.44c-150.56,0-273.75,123.18-273.75,273.74h0c0,150.56,123.19,273.74,273.75,273.74H1777.69c150.56,0,273.75-123.18,273.75-273.74h0C2051.44,5145.21,1928.25,5022,1777.69,5022Z"/></svg>